<svg xmlns="http://www.w3.org/2000/svg" width="256" height="256"><path fill="#1976D2" fill-opacity=".016" fill-rule="evenodd" d="M0 128.004v128.004l128.25-.254 128.25-.254.254-127.75L257.008 0H0zm.485.496c0 70.4.119 99.053.265 63.672s.146-92.98 0-128S.485 58.1.485 128.5"/><path fill="#1976D2" fill-opacity=".307" fill-rule="evenodd" d="M22.849 91.457c-2.254 1.531-4.313 4.145-5.47 6.941-1.628 3.937-2.373 4.615-6.101 5.553-6.387 1.609-7.424 3.965-9.437 21.443-2.273 19.74-2.263 23.867.071 28.396 2.351 4.561 7.637 9.729 11.403 11.149 3.509 1.323 34.638 1.409 38.068.106 4.301-1.636 10.423-7.971 12.201-12.627 1.823-4.773 1.816-4.996-1.017-29.852-1.352-11.865-1.705-13.166-4.271-15.731-1.658-1.659-4.171-2.948-6.174-3.167-2.874-.314-3.568-.924-4.655-4.085C44.981 92.35 40.016 89 31.782 89c-3.999 0-6.214.609-8.933 2.457m3.181 1.822c-2.519 1.275-7.03 7.126-7.03 9.119 0 .746 4.209 1.102 13.046 1.102h13.045l-.58-2.5c-.32-1.375-2.134-3.963-4.031-5.75-2.79-2.628-4.267-3.247-7.715-3.235-2.346.008-5.376.577-6.735 1.264M206 111.5c0 7.111.26 8.5 1.594 8.5.876 0 1.829-.9 2.116-2 .408-1.56 1.364-2 4.35-2 6.272 0 9.268-6.672 4.94-11-1.515-1.515-3.333-2-7.5-2H206zm18.589-5.423c-3.393 4.032-3.291 7.375.334 11 5.618 5.618 14.077 2.152 14.077-5.768 0-7.842-9.357-11.239-14.411-5.232m16.792-.536c-1.333 2.035-1.442 3.031-.544 5 .946 2.077 1.813 2.459 5.583 2.459 2.454 0 4.74.45 5.08 1 .381.616-1.323 1-4.441 1-4.692 0-5.059.176-5.059 2.433 0 2.3.292 2.421 5.373 2.227 5.983-.228 8.627-1.8 8.627-5.127 0-3.2-3.09-5.533-7.329-5.533-2.019 0-3.671-.45-3.671-1s2.25-1 5-1c4.333 0 5-.267 5-2 0-1.777-.667-2-5.977-2-5.298 0-6.166.289-7.642 2.541M210 109.5c0 2.117.465 2.5 3.031 2.5 1.857 0 3.27-.62 3.646-1.601.718-1.871-1.233-3.362-4.427-3.384-1.737-.012-2.25.555-2.25 2.485m17.571-.929c-2.083 2.084-1.982 3.747.357 5.864 2.492 2.255 5.865 1.238 6.681-2.015 1.15-4.579-3.671-7.215-7.038-3.849M14.5 109c.34.55 1.941 1 3.559 1S21 109.55 21 109s-1.602-1-3.559-1c-2.118 0-3.309.405-2.941 1m29.5 0c0 .55 1.35 1 3 1s3-.45 3-1-1.35-1-3-1-3 .45-3 1m-10.01 21.25c-6.612 4.5-7.455 6.636-7.824 19.819L25.833 162h10.682c11.903 0 15.794-1.201 19.97-6.165 7.152-8.499 4.433-21.138-5.685-26.424-4.299-2.246-12.909-1.816-16.81.839m44.614-.212c-3.392 1.016-8.19 5.328-10.193 9.162-.955 1.827-1.411 6.112-1.411 13.25 0 11.405.715 12.665 4.711 8.3 1.632-1.782 2.154-3.978 2.513-10.566.388-7.129.799-8.662 2.879-10.741 1.369-1.37 3.726-2.486 5.411-2.562 6.95-.316 11.486-3.008 11.486-6.815 0-1.278-11.15-1.298-15.396-.028m19.564 1.108c-5.903 2.922-9.399 8.372-9.399 14.654 0 11.028 7.428 17.2 20.699 17.2 3.593 0 6.532-.389 6.532-.865s-.933-2.051-2.073-3.5c-1.486-1.889-3-2.635-5.35-2.635-10.564 0-16.106-8.652-10.108-15.78 1.961-2.332 3.552-3.06 7.75-3.547 3.976-.461 5.841-1.256 7.545-3.215 1.246-1.432 2.007-3.02 1.691-3.53-1.141-1.847-12.747-1.03-17.287 1.218m29.291-.266c-10.746 4.881-13.7 17.22-6.175 25.79 4.566 5.202 8.076 6.33 19.684 6.33H151v-10.55c0-11.47-.778-14.008-5.736-18.72-2.89-2.746-7.895-4.75-11.757-4.708-1.104.012-3.826.848-6.048 1.858m38.145-.842c-3.392 1.016-8.19 5.328-10.193 9.162-.955 1.827-1.411 6.112-1.411 13.25 0 11.159.442 12.042 4.497 8.977 1.624-1.227 2.102-3.092 2.559-9.974.722-10.871 2.609-13.818 9.125-14.251 3.28-.218 5.127.227 6.898 1.66 2.148 1.74 2.48 2.987 2.974 11.181.486 8.056.848 9.458 2.862 11.09 4.472 3.62 5.085 2.693 5.085-7.683 0-10.507 1.405-14.809 5.234-16.024 4.212-1.337 8.038-.608 10.681 2.034 2.298 2.298 2.624 3.526 2.938 11.071.319 7.677.594 8.676 2.885 10.477 1.392 1.096 2.921 1.992 3.397 1.992s.865-4.769.865-10.599c0-12.348-1.368-16.299-6.906-19.946-6.782-4.467-15.568-3.956-21.307 1.238-1.646 1.489-1.928 1.489-3.574 0-2.438-2.207-8.653-4.712-11.431-4.607-1.255.047-3.585.476-5.178.952m74.517.672c-4.728 2.329-7.113 6.683-7.117 12.993-.006 8.457-2.989 12.297-9.551 12.297-2.725 0-6.453 3.178-6.453 5.5 0 1.169 1.344 1.5 6.099 1.5 11.283 0 16.89-4.879 16.897-14.703.005-6.597 1.625-10.187 4.925-10.911 8.132-1.784 11.079-3.731 11.079-7.32 0-1.733-12.045-1.244-15.879.644m-202.82 5.248c-3.747 2.285-5.571 7.589-5.104 14.844l.303 4.698 5.669.297c7.493.394 12.318-1.653 14.453-6.13 4.797-10.061-5.781-19.526-15.321-13.709m90.202 3.633c-3.364 3.63-3.402 9.252-.09 13.103 2.207 2.566 2.999 2.806 9.25 2.806h6.837l-.007-6.186c-.01-8.472-2.36-11.694-8.841-12.119-3.974-.26-5.008.087-7.149 2.396m-25.753 3.466c-2.149 1.28-2.271 4.266-.242 5.95 1.883 1.563 10.157.774 12.016-1.146.725-.748 1.467-2.261 1.647-3.361.295-1.793-.292-2.025-5.671-2.243-3.3-.134-6.787.226-7.75.8"/><path fill="#1976D2" fill-opacity=".471" fill-rule="evenodd" d="M23.99 91.25c-4.857 3.306-7.143 6.926-7.745 12.267-.425 3.775-.249 4.651.86 4.283.767-.254 1.641-2.226 1.941-4.381.763-5.476 3.385-8.974 8.155-10.883 4.416-1.766 8.623-1.353 12.575 1.237 2.969 1.945 4.478 4.76 5.169 9.646.761 5.377 3.055 5.987 3.055.812C48 92.819 33.334 84.89 23.99 91.25m-11.607 34.152c-13.105 6.102-16.343 22.275-6.712 33.527 5.422 6.334 9.272 7.262 28.573 6.891l16.592-.32 4.332-3.044c9.542-6.706 12.292-19.326 6.317-28.99-2.196-3.551-4.47-5.637-8.365-7.672-5.172-2.702-5.848-2.794-20.484-2.784-13.836.009-15.575.214-20.253 2.392m24.985 2.686c-4.066 1.179-9.947 7.734-11.296 12.591-.583 2.102-1.063 7.759-1.066 12.571L25 162h11.614c9.861 0 12.165-.31 15.267-2.053 10.296-5.787 11.999-20.418 3.292-28.292-4.313-3.9-11.611-5.362-17.805-3.567m38.021 3.817c-6.338 3.865-7.852 7.424-8.227 19.345-.323 10.25-.245 10.75 1.693 10.75 3.416 0 5.145-3.756 5.145-11.175 0-3.702.538-7.911 1.195-9.353 1.525-3.348 5.64-5.472 10.6-5.472 3.852 0 7.205-2.247 7.205-4.829 0-2.071-13.965-1.49-17.611.734m21.533.369c-10.341 6.968-10.565 20.635-.454 27.564 4.478 3.068 18.532 4.438 18.532 1.806 0-3.197-3.719-5.644-8.577-5.644-3.725 0-5.121-.544-7.5-2.923-3.121-3.121-3.932-8.322-1.893-12.132 1.474-2.755 6.242-4.945 10.765-4.945 2.503 0 4.486-.653 5.55-1.829 3.092-3.417 2.062-4.171-5.697-4.171-5.991 0-7.977.421-10.726 2.274m29.227-.578c-10.158 5.005-11.333 20.613-2.072 27.516 3.558 2.651 8.965 3.736 18.759 3.764l8.336.024-.336-11.332c-.315-10.618-.512-11.562-3.138-15.001-1.541-2.018-4.106-4.344-5.7-5.168-3.809-1.97-11.648-1.872-15.849.197m35.851.474c-5.755 3.858-8 9.621-8 20.542 0 8.531.158 9.288 1.943 9.288 3.432 0 5.057-3.798 5.057-11.823 0-7.056.148-7.525 3.4-10.777 4.382-4.382 8.305-4.529 12.834-.482 3.136 2.802 3.28 3.26 3.619 11.508.319 7.773.592 8.779 2.867 10.569 1.384 1.088 2.912 1.732 3.398 1.432.485-.3.882-4.958.882-10.351 0-8.312.307-10.196 2.012-12.364 3.99-5.072 12.594-4.308 15.535 1.379.854 1.652 1.453 5.623 1.453 9.637 0 7.366 1.423 10.626 5.054 11.576 2.075.543 2.108.341 1.78-10.806-.369-12.55-1.282-14.796-7.824-19.248-5.58-3.798-15.92-2.678-19.934 2.158-1.132 1.364-1.68 1.233-4.797-1.144-5.089-3.882-14.336-4.406-19.279-1.094m75.336 1.161c-3.422 3.136-3.672 3.787-4.272 11.118-.726 8.881-2.715 11.551-8.602 11.551-2.387 0-3.894.734-5.376 2.618-2.982 3.791-1.747 4.709 5.551 4.123 10.629-.853 15.353-5.785 15.359-16.036.005-7.103 2.799-10.705 8.304-10.705 1.989 0 4.011-.723 4.893-1.75 3.478-4.05 3.26-4.25-4.649-4.25-7.188 0-7.758.169-11.208 3.331M39.388 134.98C34.941 136.777 33 140.774 33 148.135V155h6.984c6.223 0 7.323-.303 10.093-2.777 8.371-7.48-.287-21.446-10.689-17.243m89.729 2.651c-3.002 2.102-5.08 7.114-4.407 10.63.29 1.519 1.858 3.881 3.485 5.25 2.48 2.087 3.997 2.489 9.382 2.489H144v-6.6c0-6.173-.22-6.82-3.4-10-3.823-3.823-7.698-4.42-11.483-1.769m-28.755 6.869c-1.247 3.249.407 4.5 5.952 4.5 5.351 0 8.686-1.854 8.686-4.829 0-1.887-13.908-1.575-14.638.329"/><path fill="#1976D2" fill-opacity=".533" fill-rule="evenodd" d="M25.405 90.849c-4.569 2.136-7.814 6.694-8.829 12.401-.488 2.748-.32 3.749.629 3.746.783-.003 1.368-1.417 1.479-3.575.5-9.696 11.718-15.522 20.075-10.426 3.947 2.406 7.232 7.515 7.237 11.255.002 1.513.454 2.75 1.004 2.75 1.567 0 1.135-4.106-.905-8.599-3.657-8.052-12.623-11.325-20.69-7.552m-13.563 35.172c-14.511 7.666-15.08 28.464-1.005 36.738 4.34 2.551 5.587 2.765 18.002 3.091 16.232.426 20.726-.179 25.814-3.478 6.206-4.025 8.734-8.528 9.176-16.349.414-7.323-1.43-12.467-5.995-16.725-4.854-4.528-8.687-5.301-26.052-5.254-14.109.038-16.77.302-19.94 1.977m23.658 2.644c-8.361 4.418-10.449 9.137-10.478 23.69L25 163.211l11.914-.356c11.362-.339 12.111-.494 16.147-3.355 5.365-3.803 7.939-8.596 7.939-14.784 0-5.468-1.559-9.021-5.661-12.902-5.233-4.951-13.842-6.318-19.839-3.149m40 3.761c-6.247 3.759-7.771 7.297-8.304 19.271-.37 8.323-.193 10.3.923 10.288 4.008-.045 5.881-4.184 5.881-12.996 0-6.561.238-7.381 2.923-10.066 2.336-2.336 3.798-2.923 7.278-2.923 4.622 0 8.799-2.163 8.799-4.557 0-1.116-1.53-1.441-6.75-1.434-5.345.008-7.583.511-10.75 2.417m24.5-1.704c-6.814 2.56-11.673 10.671-10.56 17.629.765 4.781 4.464 10.031 8.562 12.15 3.201 1.655 16.998 2.119 16.998.572 0-2.176-5.396-5.073-9.448-5.073-3.351 0-4.756-.603-7.097-3.047-6.51-6.794-1.68-16.953 8.061-16.953 4.366 0 8.484-2.427 8.484-5 0-1.048-12.343-1.277-15-.278m28.001.401c-8.962 3.574-12.901 15.277-7.727 22.955 4.482 6.651 7.689 7.922 19.987 7.922h10.966l-.38-10.254c-.309-8.363-.782-10.905-2.564-13.788-4.057-6.564-13.218-9.652-20.282-6.835m34.695 1.19c-6.593 3.991-7.682 6.673-7.689 18.937-.004 5.912.357 10.75.802 10.75s1.658-.621 2.696-1.38c1.529-1.118 1.992-3.126 2.443-10.588.514-8.521.764-9.388 3.359-11.62 4.981-4.284 12.522-2.7 15.576 3.272.614 1.202 1.117 5.264 1.117 9.028 0 7.01 1.692 11.288 4.463 11.288 1.021 0 1.433-2.456 1.693-10.084.339-9.947.388-10.123 3.61-13 4.463-3.985 9.321-3.983 13.311.007 2.632 2.632 2.923 3.571 2.923 9.435 0 9.115 1.922 13.582 5.863 13.627 1.088.012 1.287-2.057.984-10.239-.318-8.585-.759-10.868-2.714-14.031-4.957-8.02-16.102-10.027-23.663-4.26l-3.615 2.757-2.178-2.039c-4.999-4.683-13.019-5.469-18.981-1.86m76.202-.028c-3.954 2.658-5.761 7.08-5.842 14.291-.067 6.059-2.464 8.841-8.395 9.743-4.249.647-6.661 2.205-6.661 4.303 0 1.9 11.172 1.858 14.872-.056 4.499-2.326 5.563-4.423 6.2-12.214.711-8.696 3.192-12.352 8.38-12.352 3.541 0 7.548-2.419 7.548-4.557 0-2.562-11.97-1.937-16.102.842M37.75 136.08c-3.006 1.751-4.75 6.516-4.75 12.98v6.159l7.608-.385c6.845-.345 7.848-.663 10-3.165 3.321-3.86 3.239-9.509-.197-13.592-2.139-2.543-3.311-3.072-6.75-3.047-2.289.017-4.949.489-5.911 1.05m89.936 2.335c-4.673 4.331-4.752 10.609-.191 15.171 2.095 2.095 3.345 2.414 9.46 2.414H144v-7.077c0-6.488-.243-7.32-2.923-10-3.835-3.835-9.566-4.053-13.391-.508m-26.581 5.958c-2.262 2.726-.208 4.627 5.002 4.627 4.776 0 8.893-2.315 8.893-5 0-1.582-12.552-1.245-13.895.373"/></svg>